<?xml version="1.0" encoding="UTF-8"?>
<svg version="1.1" xmlns="http://www.w3.org/2000/svg" width="507" height="186">
<path d="M0 0 C4.62 0 9.24 0 14 0 C30.97219949 16.97219949 15 47.9976853 15 72 C70.44 72 125.88 72 183 72 C183 48.57 183 25.14 183 1 C184 0 184 0 187.125 -0.1328125 C188.40375 -0.13023438 189.6825 -0.12765625 191 -0.125 C192.27875 -0.12757812 193.5575 -0.13015625 194.875 -0.1328125 C198 0 198 0 199 1 C199.09432985 3.20867831 199.11742431 5.42041521 199.11352539 7.63110352 C199.11364593 8.33498923 199.11376646 9.03887495 199.11389065 9.76409054 C199.11314167 12.05239411 199.10551417 14.34061717 199.09765625 16.62890625 C199.09618678 18.03771933 199.0951661 19.44653295 199.09460449 20.85534668 C199.08935216 26.09107276 199.07539107 31.32678716 199.0625 36.5625 C199.041875 48.256875 199.02125 59.95125 199 72 C224.74 72 250.48 72 277 72 C277 76.95 277 81.9 277 87 C275.28692747 88.71307253 273.05046524 88.12546296 270.71039581 88.12584114 C268.97882838 88.12975276 268.97882838 88.12975276 267.2122798 88.13374341 C265.92797087 88.13151268 264.64366195 88.12928196 263.32043457 88.12698364 C261.95497486 88.12813451 260.58951546 88.1297218 259.22405672 88.13171089 C255.45431742 88.13590894 251.68460325 88.13381139 247.91486382 88.13072467 C243.85619955 88.12847271 239.79753975 88.13194916 235.73887634 88.13470459 C227.78101966 88.13916348 219.82317238 88.13818529 211.86531532 88.13529195 C205.4008151 88.13303838 198.93631752 88.13272519 192.47181702 88.13381577 C191.09448648 88.13404561 191.09448648 88.13404561 189.68933108 88.13428011 C187.82429135 88.13459982 185.95925161 88.13492403 184.09421188 88.1352527 C166.5840947 88.13810784 149.07398275 88.13481994 131.56386644 88.12945233 C116.52222995 88.12498426 101.48060119 88.12576019 86.43896484 88.13037109 C68.99375071 88.13571626 51.54854116 88.13783315 34.10332632 88.13475883 C32.24494521 88.13444026 30.3865641 88.13412589 28.52818298 88.13381577 C27.61369818 88.13366149 26.69921339 88.13350721 25.75701693 88.13334826 C19.29634859 88.13248293 12.83568315 88.13394633 6.37501526 88.13629532 C-1.49273111 88.13909287 -9.3604675 88.138356 -17.22821271 88.13301457 C-21.24647787 88.13037695 -25.26472635 88.12937351 -29.28299141 88.13266373 C-32.9554882 88.13562546 -36.62795274 88.13403596 -40.30044657 88.12868617 C-42.27105767 88.12702526 -44.24167097 88.13032065 -46.2122798 88.13374341 C-47.36665808 88.13113566 -48.52103637 88.12852791 -49.71039581 88.12584114 C-50.71497345 88.12567879 -51.7195511 88.12551644 -52.75457048 88.12534916 C-55 88 -55 88 -56 87 C-56 82.05 -56 77.1 -56 72 C-37.52 72 -19.04 72 0 72 C0 48.24 0 24.48 0 0 Z " fill="#CF2F10" transform="translate(148,45)"/>
<path d="M0 0 C45 0 45 0 55 5 C61.87056894 12.72939006 63.49980973 19.22531973 63.3046875 29.5234375 C62.67829032 36.67078988 60.27737945 41.13272169 55 45.9375 C52.4499571 48.04427372 49.96632583 49.55739232 47 51 C47.37286133 51.77077881 47.74572266 52.54155762 48.12988281 53.33569336 C49.53254243 56.23700466 50.93391942 59.13893114 52.33447266 62.04125977 C52.93716145 63.2895488 53.54033875 64.53760212 54.14404297 65.78540039 C56.94181482 71.56885414 59.73896611 77.35359523 62.421875 83.19140625 C62.7322168 83.86502197 63.04255859 84.5386377 63.36230469 85.23266602 C64 87 64 87 64 90 C58.72 90 53.44 90 48 90 C46.22113285 86.17749212 44.44274956 82.35476612 42.66552734 78.53149414 C42.06260919 77.23481818 41.45942585 75.93826548 40.85595703 74.6418457 C38.896199 70.43145345 36.94422304 66.21759103 35 62 C34.56623047 61.0601123 34.13246094 60.12022461 33.68554688 59.15185547 C33.32009766 58.3476416 32.95464844 57.54342773 32.578125 56.71484375 C32.2677832 56.03413818 31.95744141 55.35343262 31.63769531 54.65209961 C31 53 31 53 31 51 C26.05 51.33 21.1 51.66 16 52 C16.01160156 54.32417969 16.02320313 56.64835937 16.03515625 59.04296875 C16.04296352 61.30346541 16.04903078 63.56396054 16.05493164 65.82446289 C16.05994856 67.39087602 16.06676362 68.9572845 16.07543945 70.52368164 C16.08762094 72.78012239 16.09325481 75.03650102 16.09765625 77.29296875 C16.10281754 77.98899704 16.10797882 78.68502533 16.11329651 79.40214539 C16.11372667 83.16271792 15.74757049 86.26214756 15 90 C10.05 90 5.1 90 0 90 C0 60.3 0 30.6 0 0 Z M15 13 C15 21.58 15 30.16 15 39 C18.83625 39.0825 22.6725 39.165 26.625 39.25 C27.82334473 39.28641602 29.02168945 39.32283203 30.25634766 39.36035156 C36.48591317 39.42521018 40.32885399 39.29030382 45 35 C47.42549824 31.55735734 48.24053516 29.06726959 47.875 24.9375 C47.23551761 21.41024978 46.32375765 18.80453509 44 16 C38.34507415 12.12446598 32.696214 12.65591055 26.125 12.8125 C22.45375 12.874375 18.7825 12.93625 15 13 Z " fill="#000000" transform="translate(254,20)"/>
<path d="M0 0 C5.47613538 4.57463499 8.85537946 9.8355233 9.546875 17.0234375 C9.56044745 19.66327887 9.41887622 22.30303089 9.25 24.9375 C4.3 24.9375 -0.65 24.9375 -5.75 24.9375 C-5.976875 23.57625 -6.20375 22.215 -6.4375 20.8125 C-7.5362705 15.89898403 -9.10948594 13.40868782 -12.75 9.9375 C-17.03807644 7.31700884 -21.86459664 7.3850869 -26.75 7.9375 C-31.46878688 9.62914058 -33.95582817 11.79798618 -36.75 15.9375 C-37.64764705 18.63044116 -37.88904512 20.25267998 -37.92700195 23.02246094 C-37.93983719 23.84051208 -37.95267242 24.65856323 -37.96589661 25.50140381 C-37.97328354 26.3826593 -37.98067047 27.26391479 -37.98828125 28.171875 C-37.996353 29.08326233 -38.00442474 29.99464966 -38.01274109 30.93365479 C-38.0265714 32.86362817 -38.03729827 34.79362591 -38.04516602 36.72363281 C-38.06235429 39.66258644 -38.10624668 42.60040772 -38.15039062 45.5390625 C-38.16052024 47.41665842 -38.1690355 49.29426388 -38.17578125 51.171875 C-38.19328934 52.04503357 -38.21079742 52.91819214 -38.22883606 53.81781006 C-38.20811598 59.70088651 -37.16838452 63.11366227 -33.75 67.9375 C-28.67344795 71.77586862 -22.86253882 71.72707323 -16.75 70.9375 C-12.70059063 69.6413961 -10.2709059 67.74580225 -7.9375 64.125 C-6.67971971 60.74885291 -5.65632729 57.42337421 -4.75 53.9375 C2.18 54.4325 2.18 54.4325 9.25 54.9375 C9.73876944 63.61315756 8.43217803 69.33633751 3.48046875 76.49609375 C0.95261208 79.26301217 -1.31808907 80.57290208 -4.6875 82.1875 C-6.21697266 82.93773438 -6.21697266 82.93773438 -7.77734375 83.703125 C-16.792779 87.44672229 -27.47625356 87.0293889 -36.60546875 83.84375 C-43.79394799 80.80599557 -49.36241657 75.44278299 -52.5625 68.3125 C-54.61867646 62.46863005 -54.92124021 57.18614792 -54.953125 51.05078125 C-54.95882507 50.19373093 -54.96452515 49.3366806 -54.97039795 48.45365906 C-54.97982297 46.64237695 -54.98637198 44.8310779 -54.99023438 43.01977539 C-54.99990641 40.27654307 -55.03093945 37.53407132 -55.0625 34.79101562 C-55.13943775 22.218971 -54.69772086 10.70542861 -45.75 0.9375 C-32.75671141 -8.97404707 -13.41528104 -9.29424699 0 0 Z " fill="#000000" transform="translate(416.75,25.0625)"/>
<path d="M0 0 C5.28 0 10.56 0 16 0 C18.5894663 6.5676801 20.58412846 13.22510409 22.50390625 20.015625 C23.16860336 22.34115053 23.8333174 24.66667122 24.49804688 26.9921875 C25.53487889 30.63477775 26.57038044 34.27774297 27.60522461 37.92089844 C28.60986862 41.45341 29.61920425 44.98455646 30.62890625 48.515625 C30.93727921 49.60731995 31.24565216 50.69901489 31.56336975 51.8237915 C31.99908546 53.34622467 31.99908546 53.34622467 32.44360352 54.89941406 C32.69658707 55.79017639 32.94957062 56.68093872 33.21022034 57.59869385 C33.95806981 59.87251227 34.86933268 61.89427283 36 64 C36.20853607 63.25719788 36.41707214 62.51439575 36.63192749 61.74908447 C38.59923972 54.74430424 40.57042349 47.74063063 42.54594994 40.73816299 C43.56141566 37.13821315 44.57538651 33.53785628 45.5859375 29.93652344 C46.56148159 26.46015773 47.54095685 22.98492172 48.5231514 19.51042938 C48.89692621 18.18557854 49.26929006 16.86032878 49.6402092 15.5346756 C50.16052081 13.67603377 50.6863467 11.81893831 51.21240234 9.96191406 C51.50996429 8.90490295 51.80752625 7.84789185 52.11410522 6.7588501 C53 4 53 4 55 0 C59.95 0 64.9 0 70 0 C71.48031982 2.96063963 70.38715018 4.59665187 69.40454102 7.72119141 C69.02987198 8.92490387 68.65520294 10.12861633 68.2691803 11.36880493 C67.84763066 12.69645697 67.42586648 14.0240409 67.00390625 15.3515625 C66.57265354 16.72592176 66.14199454 18.10046744 65.7118988 19.47518921 C64.8023983 22.3769798 63.88808605 25.2771933 62.9699707 28.17626953 C61.8173437 31.81594506 60.67259408 35.45802698 59.53107643 39.1012001 C54.19532449 56.12690181 48.71616425 73.09748352 43 90 C37.72 90 32.44 90 27 90 C21.28602233 72.30542319 15.73192311 54.56589579 10.27880859 36.78955078 C9.19561029 33.25930383 8.10702342 29.73074038 7.01737976 26.20247841 C6.16873036 23.45133897 5.32381267 20.69906412 4.47994995 17.94645309 C4.07943816 16.6422718 3.67754087 15.33851511 3.27420044 14.03520584 C2.7179125 12.23643878 2.16740566 10.4358869 1.6171875 8.63525391 C1.14708252 7.10621933 1.14708252 7.10621933 0.66748047 5.54629517 C0 3 0 3 0 0 Z " fill="#000000" transform="translate(65,20)"/>
<path d="M0 0 C21.45 0 42.9 0 65 0 C65 4.29 65 8.58 65 13 C56.75 13 48.5 13 40 13 C40.00523682 15.29702881 40.01047363 17.59405762 40.01586914 19.96069336 C40.03240555 27.53235636 40.04347143 35.10402013 40.05181217 42.67569637 C40.05704082 47.2684264 40.06413812 51.861138 40.07543945 56.45385742 C40.086269 60.88233688 40.09227698 65.31079856 40.09487724 69.73929024 C40.09673137 71.43265628 40.10035175 73.12602129 40.10573006 74.81937981 C40.1129414 77.18291232 40.1139909 79.54637045 40.11352539 81.90991211 C40.11712067 82.61697296 40.12071594 83.32403381 40.12442017 84.05252075 C40.11405216 88.88594784 40.11405216 88.88594784 39 90 C36.66839945 90.09909302 34.33370058 90.12970504 32 90.125 C30.72125 90.12757812 29.4425 90.13015625 28.125 90.1328125 C25 90 25 90 24 89 C23.90505267 86.62699131 23.87440681 84.28321297 23.88647461 81.90991211 C23.88632858 81.16849472 23.88618256 80.42707733 23.8860321 79.66319275 C23.88673135 77.20121379 23.89452426 74.73930957 23.90234375 72.27734375 C23.90420789 70.57483461 23.90563181 68.87232493 23.90663147 67.16981506 C23.91045698 62.68006927 23.92028753 58.19035562 23.93133545 53.70062256 C23.94154887 49.12268509 23.94612894 44.54474244 23.95117188 39.96679688 C23.96190978 30.97784816 23.97950684 21.98893178 24 13 C16.08 13 8.16 13 0 13 C0 8.71 0 4.42 0 0 Z " fill="#000000" transform="translate(176,20)"/>
<path d="M0 0 C1.27875 0.00257812 2.5575 0.00515625 3.875 0.0078125 C5.15375 0.00523438 6.4325 0.00265625 7.75 0 C10.875 0.1328125 10.875 0.1328125 11.875 1.1328125 C11.96929342 3.31086969 11.99242538 5.4920253 11.98852539 7.67211914 C11.98867142 8.35501511 11.98881744 9.03791107 11.9889679 9.74150085 C11.98826876 12.00868864 11.9804764 14.27579524 11.97265625 16.54296875 C11.97079207 18.11095637 11.96936817 19.67894457 11.96836853 21.24693298 C11.96454334 25.38157753 11.95471306 29.51618716 11.94366455 33.65081787 C11.93345044 37.86681648 11.92887091 42.08282072 11.92382812 46.29882812 C11.91309079 54.57683897 11.89601436 62.8548214 11.875 71.1328125 C11.215 71.1328125 10.555 71.1328125 9.875 71.1328125 C9.875 48.3628125 9.875 25.5928125 9.875 2.1328125 C5.915 2.1328125 1.955 2.1328125 -2.125 2.1328125 C-2.125 24.9028125 -2.125 47.6728125 -2.125 71.1328125 C-2.785 71.1328125 -3.445 71.1328125 -4.125 71.1328125 C-4.14812545 62.02322085 -4.16591612 52.91363924 -4.17681217 43.8040247 C-4.18204056 39.57449879 -4.1891374 35.3449929 -4.20043945 31.11547852 C-4.21126991 27.03712707 -4.21727717 22.95879493 -4.21987724 18.88043022 C-4.22173121 17.32103611 -4.22535127 15.7616431 -4.23073006 14.20225716 C-4.23794262 12.02552088 -4.23899085 9.84886536 -4.23852539 7.67211914 C-4.240746 6.43079727 -4.24296661 5.1894754 -4.24525452 3.91053772 C-4.07506489 -0.02062445 -3.98264818 0.16926255 0 0 Z " fill="#B03721" transform="translate(335.125,44.8671875)"/>
<path d="M0 0 C3.31578076 2.66879915 3.89008359 4.31607564 4.5625 8.5 C4 12 4 12 2 14.9375 C-2.13313471 17.77903011 -4.04904141 17.62869315 -9 17 C-11.4375 16 -11.4375 16 -13 14 C-14.08745801 9.50517355 -14.57436819 7.28549071 -12.6875 3.0625 C-9.37068447 -0.99138564 -4.91058434 -0.7588292 0 0 Z " fill="#CA3418" transform="translate(344,19)"/>
<path d="M0 0 C2.5625 1.5 2.5625 1.5 4 4 C4.58199542 8.58321396 4.54877707 10.85472611 2.5625 15 C-0.70204856 17.54794034 -2.81153884 17.67376597 -6.87109375 17.40625 C-9 17 -9 17 -11.5625 15.5625 C-13.7145847 11.72617511 -13.74831272 8.29295189 -13 4 C-10.14303498 -1.09285069 -5.27178986 -0.92860886 0 0 Z " fill="#D22F0F" transform="translate(160,19)"/>
<path d="M0 0 C8.3984375 -0.1953125 8.3984375 -0.1953125 11 0 C13 2 13 2 13.125 4.9375 C13.08375 5.948125 13.0425 6.95875 13 8 C13 10.18789679 13.0482789 12.37594878 13.125 14.5625 C13 18 13 18 11 20 C7.31975395 20.27629475 3.69505443 20.0859315 0 20 C0 13.4 0 6.8 0 0 Z M3 2 C3 3.98 3 5.96 3 8 C4.98 8 6.96 8 9 8 C9.33 6.35 9.66 4.7 10 3 C7.69 2.67 5.38 2.34 3 2 Z M3 11 C3 13.31 3 15.62 3 18 C6.465 17.505 6.465 17.505 10 17 C10.6814823 15.10820797 10.6814823 15.10820797 11 13 C9.10244856 10.65026182 9.10244856 10.65026182 5.875 10.875 C4.92625 10.91625 3.9775 10.9575 3 11 Z " fill="#7A7A7C" transform="translate(93,149)"/>
<path d="M0 0 C2 2 2 2 2 6 C1.01 5.67 0.02 5.34 -1 5 C-1.33 4.34 -1.66 3.68 -2 3 C-3.65 3 -5.3 3 -7 3 C-7.33 4.32 -7.66 5.64 -8 7 C-7.37351563 7.15855469 -6.74703125 7.31710938 -6.1015625 7.48046875 C0.54079058 9.37678722 0.54079058 9.37678722 2.75 12.375 C3 15 3 15 2.1875 17.8125 C-0.33606791 20.33606791 -1.05417437 20.40510503 -4.5 20.5625 C-7.65609246 20.38801684 -8.64003515 20.31633275 -11.0625 18.1875 C-12 16 -12 16 -12 13 C-11.01 13 -10.02 13 -9 13 C-8.67 13.99 -8.34 14.98 -8 16 C-4.41672247 17.00217064 -4.41672247 17.00217064 -1 16 C-1.6657158 12.94138351 -1.6657158 12.94138351 -3.8125 11.8671875 C-4.534375 11.53976563 -5.25625 11.21234375 -6 10.875 C-9.94039735 9.05960265 -9.94039735 9.05960265 -11 8 C-11.23529412 2.47058824 -11.23529412 2.47058824 -10 0 C-6.25976024 -1.24674659 -3.83399823 -0.76679965 0 0 Z " fill="#717172" transform="translate(218,149)"/>
<path d="M0 0 C0.99 0 1.98 0 3 0 C3 6.6 3 13.2 3 20 C-0.3 20 -3.6 20 -7 20 C-9.06520632 16.90219052 -9.29477024 16.0459519 -9.3125 12.5 C-9.32925781 11.7265625 -9.34601563 10.953125 -9.36328125 10.15625 C-8.91303325 7.48381026 -8.15119714 6.60575142 -6 5 C-3.3125 4.8125 -3.3125 4.8125 -1 5 C-0.67 3.35 -0.34 1.7 0 0 Z M-5 8 C-6.20561184 8.98267859 -6.20561184 8.98267859 -6.09765625 10.84765625 C-6.08605469 11.57855469 -6.07445312 12.30945313 -6.0625 13.0625 C-6.041875 14.361875 -6.02125 15.66125 -6 17 C-4.10820797 17.6814823 -4.10820797 17.6814823 -2 18 C0.32483785 16.11624325 0.32483785 16.11624325 0.1875 13 C0.20079609 10.07613397 0.20079609 10.07613397 -1 8 C-2.32 8 -3.64 8 -5 8 Z " fill="#7E7E7F" transform="translate(415,149)"/>
<path d="M0 0 C1.32 0.66 2.64 1.32 4 2 C4 2.66 4 3.32 4 4 C4.66 4 5.32 4 6 4 C6 5.98 6 7.96 6 10 C5.34 10 4.68 10 4 10 C3.67 11.32 3.34 12.64 3 14 C1.741875 14.020625 0.48375 14.04125 -0.8125 14.0625 C-1.52019531 14.07410156 -2.22789062 14.08570313 -2.95703125 14.09765625 C-5 14 -5 14 -8 13 C-9.1875 9.4375 -9.1875 9.4375 -10 6 C-9.01 6.33 -8.02 6.66 -7 7 C-7 7.99 -7 8.98 -7 10 C-6.34 10 -5.68 10 -5 10 C-5 9.34 -5 8.68 -5 8 C-4.34 8 -3.68 8 -3 8 C-2.87625 7.4225 -2.7525 6.845 -2.625 6.25 C-1.99351176 3.97664233 -1.11141809 2.0746471 0 0 Z " fill="#D22E0D" transform="translate(341,20)"/>
<path d="M0 0 C9.1796875 -0.1953125 9.1796875 -0.1953125 12 0 C14 2 14 2 14.25 5.5 C14 9 14 9 12 11 C8.98173347 11.27240673 6.03629378 11.08675125 3 11 C3 13.97 3 16.94 3 20 C2.01 20 1.02 20 0 20 C0 13.4 0 6.8 0 0 Z M3 2 C3 4.31 3 6.62 3 9 C7.14093698 9.20970559 7.14093698 9.20970559 11 8 C11.042721 6.33388095 11.04063832 4.66617115 11 3 C9.81575674 1.58422523 9.81575674 1.58422523 6.4375 1.9375 C4.7359375 1.9684375 4.7359375 1.9684375 3 2 Z " fill="#757577" transform="translate(327,149)"/>
<path d="M0 0 C3 0.4375 3 0.4375 4.875 2.125 C6.16185671 4.77020547 6.24213848 6.53183826 6 9.4375 C3.03 9.4375 0.06 9.4375 -3 9.4375 C-3 10.4275 -3 11.4175 -3 12.4375 C0.19902639 12.52636184 2.92677456 12.34808531 6 11.4375 C5.34 12.7575 4.68 14.0775 4 15.4375 C2.72125 15.499375 1.4425 15.56125 0.125 15.625 C-0.59429687 15.65980469 -1.31359375 15.69460937 -2.0546875 15.73046875 C-2.69664062 15.63378906 -3.33859375 15.53710938 -4 15.4375 C-6.06520632 12.33969052 -6.29477024 11.4834519 -6.3125 7.9375 C-6.32925781 7.1640625 -6.34601563 6.390625 -6.36328125 5.59375 C-5.69575952 1.63168551 -3.83072377 0.55864722 0 0 Z M-2 3.4375 C-2.33 4.4275 -2.66 5.4175 -3 6.4375 C-1.02 6.4375 0.96 6.4375 3 6.4375 C2.67 5.4475 2.34 4.4575 2 3.4375 C0.68 3.4375 -0.64 3.4375 -2 3.4375 Z " fill="#7B7B7D" transform="translate(166,153.5625)"/>
<path d="M0 0 C3.5 0.5625 3.5 0.5625 5.4375 2.6875 C6.9727005 6.84157193 7.26740827 9.8471168 5.4375 13.9375 C3.5 15.5625 3.5 15.5625 0 16.0625 C-3.5 15.5625 -3.5 15.5625 -5.4375 14 C-6.89859421 10.64807799 -6.8879235 8.18311933 -6.5 4.5625 C-4.89760201 0.8864105 -4.00223144 0.64321577 0 0 Z M-3.5 4.5625 C-3.75003964 8.02071402 -3.75003964 8.02071402 -3.5 11.5625 C-2.84 12.2225 -2.18 12.8825 -1.5 13.5625 C1.28237655 13.15721099 1.28237655 13.15721099 3.5 11.5625 C3.74733137 7.41973125 3.74733137 7.41973125 2.5 3.5625 C-0.78930404 3.19564303 -0.78930404 3.19564303 -3.5 4.5625 Z " fill="#7B7B7D" transform="translate(283.5,153.4375)"/>
<path d="M0 0 C1.875 1.375 1.875 1.375 3 3 C3 3.66 3 4.32 3 5 C2.01 5 1.02 5 0 5 C0 4.34 0 3.68 0 3 C-1.65 3 -3.3 3 -5 3 C-4.09281392 5.33667103 -4.09281392 5.33667103 -1 6.375 C2 8 2 8 3.0625 10 C3 12 3 12 2 13.75 C-0.96672303 15.6042019 -3.58497041 15.19330356 -7 15 C-7.66 13.35 -8.32 11.7 -9 10 C-8.01 10 -7.02 10 -6 10 C-5.67 10.66 -5.34 11.32 -5 12 C-3.68 12 -2.36 12 -1 12 C-0.67 11.34 -0.34 10.68 0 10 C-1.11375 9.7525 -2.2275 9.505 -3.375 9.25 C-7 8 -7 8 -8.5 6.0625 C-9 4 -9 4 -8 1 C-5.20129973 -0.39935013 -3.09501208 -0.25265405 0 0 Z " fill="#79797B" transform="translate(316,154)"/>
<path d="M0 0 C1.60875 -0.061875 3.2175 -0.12375 4.875 -0.1875 C5.77992188 -0.22230469 6.68484375 -0.25710937 7.6171875 -0.29296875 C8.79667969 -0.14794922 8.79667969 -0.14794922 10 0 C12.35119399 3.52679099 12.21443452 5.02879485 12.125 9.1875 C12.10695312 10.27417969 12.08890625 11.36085937 12.0703125 12.48046875 C12.03550781 13.72763672 12.03550781 13.72763672 12 15 C11.01 15 10.02 15 9 15 C8.67 11.37 8.34 7.74 8 4 C6.68 4 5.36 4 4 4 C3.67 7.63 3.34 11.26 3 15 C2.01 15 1.02 15 0 15 C0 10.05 0 5.1 0 0 Z " fill="#7F7F81" transform="translate(145,154)"/>
<path d="M0 0 C0.99 0 1.98 0 3 0 C3.33 3.63 3.66 7.26 4 11 C5.32 11 6.64 11 8 11 C8.33 7.37 8.66 3.74 9 0 C9.99 0 10.98 0 12 0 C12 4.95 12 9.9 12 15 C10.39125 15.061875 8.7825 15.12375 7.125 15.1875 C5.76761719 15.23970703 5.76761719 15.23970703 4.3828125 15.29296875 C3.20332031 15.14794922 3.20332031 15.14794922 2 15 C-0.35119399 11.47320901 -0.21443452 9.97120515 -0.125 5.8125 C-0.10695313 4.72582031 -0.08890625 3.63914063 -0.0703125 2.51953125 C-0.04710938 1.68808594 -0.02390625 0.85664063 0 0 Z " fill="#7C7C7D" transform="translate(109,154)"/>
<path d="M0 0 C0.99 0 1.98 0 3 0 C3 3.96 3 7.92 3 12 C4.65 11.67 6.3 11.34 8 11 C8.33 7.37 8.66 3.74 9 0 C9.99 0 10.98 0 12 0 C12 4.95 12 9.9 12 15 C10.39125 15.04125 8.7825 15.0825 7.125 15.125 C6.22007812 15.14820313 5.31515625 15.17140625 4.3828125 15.1953125 C2 15 2 15 0 13 C-0.1953125 9.9609375 -0.1953125 9.9609375 -0.125 6.375 C-0.10695312 5.18648437 -0.08890625 3.99796875 -0.0703125 2.7734375 C-0.04710937 1.85820312 -0.02390625 0.94296875 0 0 Z " fill="#7B7B7C" transform="translate(245,154)"/>
<path d="M0 0 C0.66 0.33 1.32 0.66 2 1 C2.33 2.32 2.66 3.64 3 5 C-1.455 4.01 -1.455 4.01 -6 3 C-6 3.66 -6 4.32 -6 5 C-4.88625 5.226875 -3.7725 5.45375 -2.625 5.6875 C1 7 1 7 2.4375 9.625 C2.623125 10.40875 2.80875 11.1925 3 12 C1.9375 13.5 1.9375 13.5 0 15 C-3.5625 15.3125 -3.5625 15.3125 -7 15 C-7.66 14.34 -8.32 13.68 -9 13 C-9 12.01 -9 11.02 -9 10 C-8.01 10 -7.02 10 -6 10 C-5.67 10.66 -5.34 11.32 -5 12 C-3.68 12 -2.36 12 -1 12 C-0.67 11.34 -0.34 10.68 0 10 C-1.11375 9.773125 -2.2275 9.54625 -3.375 9.3125 C-7 8 -7 8 -8.4375 5.375 C-8.7159375 4.199375 -8.7159375 4.199375 -9 3 C-6.39198065 -0.47735913 -4.17603192 -0.35540697 0 0 Z " fill="#767677" transform="translate(196,154)"/>
<path d="M0 0 C6.73828125 -0.390625 6.73828125 -0.390625 9 0 C11.38940737 2.22172966 11.95229246 3.54455199 12.29296875 6.796875 C12.25816406 7.77140625 12.22335937 8.7459375 12.1875 9.75 C12.16042969 10.73484375 12.13335937 11.7196875 12.10546875 12.734375 C12.07066406 13.48203125 12.03585937 14.2296875 12 15 C11.01 15 10.02 15 9 15 C8.67 11.04 8.34 7.08 8 3 C6.68 3.33 5.36 3.66 4 4 C3.67 7.63 3.34 11.26 3 15 C2.01 15 1.02 15 0 15 C0 10.05 0 5.1 0 0 Z " fill="#7C7C7D" transform="translate(293,154)"/>
<path d="M0 0 C3 0.375 3 0.375 6 2.375 C7.14493489 7.04281149 7.26456324 10.09749166 5 14.375 C4 15.375 4 15.375 0.625 15.625 C-3 15.375 -3 15.375 -4.9375 14.375 C-6.6542175 11.14353177 -6.5109324 7.90185279 -6 4.375 C-4.4514893 0.93386511 -3.76625262 0.47078158 0 0 Z M-3 4.375 C-3.04092937 6.70797433 -3.04241723 9.04205225 -3 11.375 C-1.02 12.365 -1.02 12.365 1 13.375 C2.70735301 12.33931405 2.70735301 12.33931405 4 10.375 C3.76522801 6.72958155 3.76522801 6.72958155 3 3.375 C-0.28930404 3.00814303 -0.28930404 3.00814303 -3 4.375 Z " fill="#79797A" transform="translate(229,153.625)"/>
<path d="M0 0 C3.5 0.25 3.5 0.25 5.5 2.25 C5.5 3.24 5.5 4.23 5.5 5.25 C4.51 5.25 3.52 5.25 2.5 5.25 C2.5 4.59 2.5 3.93 2.5 3.25 C0.85 3.25 -0.8 3.25 -2.5 3.25 C-0.87633534 6.49732932 2.25387839 6.95155136 5.5 8.25 C5.625 10.625 5.625 10.625 5.5 13.25 C3.5 15.25 3.5 15.25 0 15.5 C-3.5 15.25 -3.5 15.25 -5.5 13.25 C-5.5 12.26 -5.5 11.27 -5.5 10.25 C-4.51 10.25 -3.52 10.25 -2.5 10.25 C-2.17 10.91 -1.84 11.57 -1.5 12.25 C-0.51 12.25 0.48 12.25 1.5 12.25 C1.5 11.59 1.5 10.93 1.5 10.25 C0.0459375 9.6621875 0.0459375 9.6621875 -1.4375 9.0625 C-4.5 7.25 -4.5 7.25 -5.5 4.6875 C-5.5 0.51838755 -3.9243324 0.28030946 0 0 Z " fill="#7C7D7E" transform="translate(129.5,153.75)"/>
<path d="M0 0 C2 2 2 2 2 5 C-0.64 4.34 -3.28 3.68 -6 3 C-6 3.66 -6 4.32 -6 5 C-4.88625 5.226875 -3.7725 5.45375 -2.625 5.6875 C1 7 1 7 2.4375 9.625 C2.623125 10.40875 2.80875 11.1925 3 12 C1.9375 13.5 1.9375 13.5 0 15 C-3.5625 15.3125 -3.5625 15.3125 -7 15 C-7.66 14.34 -8.32 13.68 -9 13 C-9 12.01 -9 11.02 -9 10 C-8.01 10 -7.02 10 -6 10 C-5.67 10.66 -5.34 11.32 -5 12 C-3.68 12 -2.36 12 -1 12 C-0.67 11.34 -0.34 10.68 0 10 C-1.11375 9.71125 -2.2275 9.4225 -3.375 9.125 C-7 8 -7 8 -9 6 C-8.75 3.4375 -8.75 3.4375 -8 1 C-5.23749964 -0.38125018 -3.05268901 -0.19079306 0 0 Z " fill="#78787A" transform="translate(183,154)"/>
<path d="M0 0 C1.32 0.33 2.64 0.66 4 1 C5.75 4.5625 5.75 4.5625 7 8 C7.99 5.36 8.98 2.72 10 0 C10.99 0 11.98 0 13 0 C12.54705135 1.75140143 12.08741252 3.50107344 11.625 5.25 C11.36976563 6.22453125 11.11453125 7.1990625 10.8515625 8.203125 C10.10401491 10.65837303 9.22876183 12.75617405 8 15 C7.01 15 6.02 15 5 15 C3.35 10.05 1.7 5.1 0 0 Z " fill="#77777A" transform="translate(342,154)"/>
<path d="M0 0 C0.99 0 1.98 0 3 0 C3 5.94 3 11.88 3 18 C6.3 18 9.6 18 13 18 C13 18.66 13 19.32 13 20 C8.71 20 4.42 20 0 20 C0 13.4 0 6.8 0 0 Z " fill="#818182" transform="translate(381,149)"/>
<path d="M0 0 C0.99 0 1.98 0 3 0 C3 1.32 3 2.64 3 4 C4.32 4.33 5.64 4.66 7 5 C5.68 5.33 4.36 5.66 3 6 C3.33 9.3 3.66 12.6 4 16 C4.99 16.33 5.98 16.66 7 17 C7 17.66 7 18.32 7 19 C4.625 19.125 4.625 19.125 2 19 C-0.47352021 16.52647979 -0.32672635 15.47870976 -0.5625 12.0625 C-0.77706165 9.08928853 -1.05019358 6.84941926 -2 4 C-1.34 4 -0.68 4 0 4 C0 2.68 0 1.36 0 0 Z " fill="#7E7D81" transform="translate(397,150)"/>
<path d="M0 0 C0.99 0 1.98 0 3 0 C3 1.32 3 2.64 3 4 C3.99 4 4.98 4 6 4 C6 4.66 6 5.32 6 6 C5.01 6 4.02 6 3 6 C3.1135629 7.64666203 3.24117381 9.29236082 3.375 10.9375 C3.44460938 11.85402344 3.51421875 12.77054688 3.5859375 13.71484375 C3.72257812 14.46894531 3.85921875 15.22304687 4 16 C4.66 16.33 5.32 16.66 6 17 C6 17.66 6 18.32 6 19 C4.33388095 19.042721 2.66617115 19.04063832 1 19 C-0.70979248 17.29020752 -0.32834799 14.96069337 -0.5 12.625 C-0.73236344 9.47979491 -0.99875969 7.00372093 -2 4 C-1.34 4 -0.68 4 0 4 C0 2.68 0 1.36 0 0 Z " fill="#7B7B7D" transform="translate(358,150)"/>
<path d="M0 0 C0.99 0 1.98 0 3 0 C3 1.32 3 2.64 3 4 C4.32 4.33 5.64 4.66 7 5 C5.68 5.33 4.36 5.66 3 6 C3.1135629 7.64666203 3.24117381 9.29236082 3.375 10.9375 C3.44460938 11.85402344 3.51421875 12.77054688 3.5859375 13.71484375 C3.72257812 14.46894531 3.85921875 15.22304687 4 16 C4.66 16.33 5.32 16.66 6 17 C6 17.66 6 18.32 6 19 C1.125 18.125 1.125 18.125 0 17 C-0.20904433 15.37990641 -0.36785857 13.75317119 -0.5 12.125 C-0.74279416 9.15077151 -1.05025071 6.84924786 -2 4 C-1.34 4 -0.68 4 0 4 C0 2.68 0 1.36 0 0 Z " fill="#777777" transform="translate(261,150)"/>
<path d="M0 0 C0.66 0 1.32 0 2 0 C2.33 0.66 2.66 1.32 3 2 C6.81984796 2.77811718 9.26840331 3.24386556 13 2 C12.67 2.99 12.34 3.98 12 5 C9.03 5 6.06 5 3 5 C3 7.97 3 10.94 3 14 C2.01 14 1.02 14 0 14 C0 9.38 0 4.76 0 0 Z " fill="#7D7D7E" transform="translate(327,155)"/>
<path d="M0 0 C0.99 0 1.98 0 3 0 C3 6.6 3 13.2 3 20 C2.01 20 1.02 20 0 20 C0 13.4 0 6.8 0 0 Z " fill="#79797A" transform="translate(239,149)"/>
<path d="M0 0 C1.125 1.75 1.125 1.75 2 4 C1.34 5.32 0.68 6.64 0 8 C-2.97 8 -5.94 8 -9 8 C-8.74438677 5.6568787 -8.40729228 3.32156597 -8 1 C-5.29120665 -0.35439668 -2.99066732 -0.06501451 0 0 Z M-5 3 C-5.33 3.99 -5.66 4.98 -6 6 C-4.02 6 -2.04 6 0 6 C-0.33 5.01 -0.66 4.02 -1 3 C-2.32 3 -3.64 3 -5 3 Z " fill="#737375" transform="translate(169,154)"/>
<path d="M0 0 C0.33 0 0.66 0 1 0 C1.41668469 4.25018379 1.44022082 6.35342568 -1 9.9375 C-5.13313471 12.77903011 -7.04904141 12.62869315 -12 12 C-14.4375 11 -14.4375 11 -16 9 C-16.62406373 6.29572382 -16.81709865 3.78924558 -17 1 C-15 4 -15 4 -14 9 C-10.37 9 -6.74 9 -3 9 C-2.67 8.01 -2.34 7.02 -2 6 C-1.34 6 -0.68 6 0 6 C0 4.02 0 2.04 0 0 Z " fill="#BA3820" transform="translate(347,24)"/>
<path d="M0 0 C2.46800047 1.15173355 4.04783565 2.04783565 6 4 C6.43985227 8.47183139 6.50545655 10.94513415 4.5625 15 C1.28650488 17.55687424 -0.8269933 17.52341324 -4.87890625 17.46875 C-7.42180154 16.90678419 -8.35760094 15.97297779 -10 14 C-6.07103605 14 -2.80106772 15.00299863 1 16 C1 15.01 1 14.02 1 13 C1.66 13 2.32 13 3 13 C3 12.34 3 11.68 3 11 C3.66 11 4.32 11 5 11 C5 9.02 5 7.04 5 5 C3.35 5 1.7 5 0 5 C0.66 4.34 1.32 3.68 2 3 C1.34 2.01 0.68 1.02 0 0 Z " fill="#B73920" transform="translate(158,19)"/>
<path d="M0 0 C0.99 0 1.98 0 3 0 C3 4.95 3 9.9 3 15 C2.01 15 1.02 15 0 15 C0 10.05 0 5.1 0 0 Z " fill="#7E7E80" transform="translate(271,154)"/>
<path d="M0 0 C0.99 0 1.98 0 3 0 C3 4.95 3 9.9 3 15 C2.01 15 1.02 15 0 15 C0 10.05 0 5.1 0 0 Z " fill="#7F7F80" transform="translate(138,154)"/>
<path d="M0 0 C5.625 -0.25 5.625 -0.25 9 2 C9.83902226 5.84551868 10.25360525 8.23918426 9 12 C8.01 12 7.02 12 6 12 C6 9.03 6 6.06 6 3 C4.68 2.67 3.36 2.34 2 2 C1.34 1.34 0.68 0.68 0 0 Z " fill="#727274" transform="translate(226,154)"/>
<path d="M0 0 C0.33 0.99 0.66 1.98 1 3 C4.51190809 4.22969878 4.51190809 4.22969878 8 5 C8 5.99 8 6.98 8 8 C4.04179141 7.43454163 1.3340947 6.19097652 -2 4 C-1.34 2.68 -0.68 1.36 0 0 Z " fill="#7A7A7C" transform="translate(209,153)"/>
<path d="M0 0 C0.33 0 0.66 0 1 0 C1.185625 1.7015625 1.185625 1.7015625 1.375 3.4375 C1.684375 5.2009375 1.684375 5.2009375 2 7 C2.66 7.33 3.32 7.66 4 8 C4 8.66 4 9.32 4 10 C-0.875 9.125 -0.875 9.125 -2 8 C-1.28 1.28 -1.28 1.28 0 0 Z " fill="#7C7C7E" transform="translate(263,159)"/>
<path d="M0 0 C0.99 0 1.98 0 3 0 C3.33 0.99 3.66 1.98 4 3 C6.50447516 4.21869929 6.50447516 4.21869929 9 5 C9 5.66 9 6.32 9 7 C6.1875 7.25 6.1875 7.25 3 7 C1.125 5.1875 1.125 5.1875 0 3 C0 2.01 0 1.02 0 0 Z " fill="#787878" transform="translate(206,162)"/>
<path d="M0 0 C0.99 0 1.98 0 3 0 C3 2.97 3 5.94 3 9 C2.01 9 1.02 9 0 9 C0 6.03 0 3.06 0 0 Z " fill="#818182" transform="translate(118,154)"/>
<path d="M0 0 C0.99 0.33 1.98 0.66 3 1 C3 3.31 3 5.62 3 8 C2.01 7.67 1.02 7.34 0 7 C0 4.69 0 2.38 0 0 Z M-2 7 C-1.01 7.495 -1.01 7.495 0 8 C-0.99 8.495 -0.99 8.495 -2 9 C-2 8.34 -2 7.68 -2 7 Z " fill="#6F6F7C" transform="translate(338,150)"/>
<path d="M0 0 C0.66 0 1.32 0 2 0 C2 2.97 2 5.94 2 9 C1.01 9 0.02 9 -1 9 C-0.67 6.03 -0.34 3.06 0 0 Z " fill="#7C7C7F" transform="translate(240,160)"/>
<path d="M0 0 C2.97 0 5.94 0 9 0 C8.01 0.495 8.01 0.495 7 1 C7 1.66 7 2.32 7 3 C5.35 3.33 3.7 3.66 2 4 C1.34 2.68 0.68 1.36 0 0 Z " fill="#70707D" transform="translate(293,154)"/>
<path d="M0 0 C1.98 0 3.96 0 6 0 C6 0.99 6 1.98 6 3 C3.69 3 1.38 3 -1 3 C-0.67 2.01 -0.34 1.02 0 0 Z " fill="#777879" transform="translate(149,154)"/>
<path d="M0 0 C2.31 0 4.62 0 7 0 C7.33 0.66 7.66 1.32 8 2 C7.34 2.66 6.68 3.32 6 4 C4.02 3.34 2.04 2.68 0 2 C0 1.34 0 0.68 0 0 Z " fill="#737375" transform="translate(280,154)"/>
<path d="M0 0 C0.66 0.33 1.32 0.66 2 1 C1.0409375 2.0209375 1.0409375 2.0209375 0.0625 3.0625 C-2.3258493 6.46408839 -2.67877153 8.90433701 -3 13 C-3.33 13 -3.66 13 -4 13 C-4.63019694 4.80743982 -4.63019694 4.80743982 -2 1.4375 C-1.34 0.963125 -0.68 0.48875 0 0 Z " fill="#B43D1C" transform="translate(151,19)"/>
<path d="M0 0 C0.66 0 1.32 0 2 0 C2 0.66 2 1.32 2 2 C3.32 2.33 4.64 2.66 6 3 C6 3.66 6 4.32 6 5 C4.35 5 2.7 5 1 5 C0.67 3.35 0.34 1.7 0 0 Z " fill="#8A8A8C" transform="translate(358,164)"/>
<path d="M0 0 C0.99 0 1.98 0 3 0 C3 2.31 3 4.62 3 7 C2.01 7 1.02 7 0 7 C0 4.69 0 2.38 0 0 Z " fill="#6D6D6E" transform="translate(239,149)"/>
<path d="M0 0 C0.99 0 1.98 0 3 0 C3 1.32 3 2.64 3 4 C1.68 3.67 0.36 3.34 -1 3 C-0.67 2.01 -0.34 1.02 0 0 Z " fill="#87878A" transform="translate(368,165)"/>
<path d="M0 0 C0.99 0 1.98 0 3 0 C3 1.32 3 2.64 3 4 C1.68 3.67 0.36 3.34 -1 3 C-0.67 2.01 -0.34 1.02 0 0 Z " fill="#656565" transform="translate(271,148)"/>
<path d="M0 0 C0.99 0.33 1.98 0.66 3 1 C2.67 1.99 2.34 2.98 2 4 C1.01 4 0.02 4 -1 4 C-0.67 2.68 -0.34 1.36 0 0 Z " fill="#727272" transform="translate(139,148)"/>
<path d="M0 0 C0.99 0 1.98 0 3 0 C3 1.32 3 2.64 3 4 C2.01 4 1.02 4 0 4 C0 2.68 0 1.36 0 0 Z " fill="#7E7E7E" transform="translate(422,165)"/>
</svg>
