<svg xmlns="http://www.w3.org/2000/svg" width="99.903" height="41.073" viewBox="0 0 99.903 41.073"><defs><style>.a{fill:#d32f0f;}.b{fill:#818386;}</style></defs><g transform="translate(-652.903 -462.916)"><path d="M660.292,488.826l-7.354-23.672-.035-.14q0-.35.385-.35h3.467a.461.461,0,0,1,.49.35l5.253,18.279c.023.07.058.105.105.105s.082-.035.105-.105l5.218-18.279a.461.461,0,0,1,.49-.35h3.4a.37.37,0,0,1,.315.14.364.364,0,0,1,.035.35L664.7,488.826a.439.439,0,0,1-.455.35h-3.5A.439.439,0,0,1,660.292,488.826Z" transform="translate(0 -1.464)"/><path class="a" d="M793.6,528.195a.4.4,0,0,1-.122-.3V507.818a.418.418,0,0,1,.42-.42h3.221a.419.419,0,0,1,.42.42V527.9a.419.419,0,0,1-.42.42H793.9A.4.4,0,0,1,793.6,528.195Z" transform="translate(-117.711 -37.247)"/><path class="a" d="M698.124,628.5a.4.4,0,0,1,.3-.122h91.4a.418.418,0,0,1,.42.42v3.222a.419.419,0,0,1-.42.42h-91.4a.419.419,0,0,1-.42-.42V628.8A.4.4,0,0,1,698.124,628.5Z" transform="translate(-37.762 -138.552)"/><path d="M859.258,464.787a.406.406,0,0,1,.122.3v2.7a.419.419,0,0,1-.42.42h-6.443a.155.155,0,0,0-.175.175v20.38a.419.419,0,0,1-.42.42H848.7a.419.419,0,0,1-.42-.42v-20.38a.155.155,0,0,0-.175-.175h-6.2a.419.419,0,0,1-.42-.42v-2.7a.419.419,0,0,1,.42-.42h17.053A.406.406,0,0,1,859.258,464.787Z" transform="translate(-157.91 -1.464)"/><path d="M987.8,488.861l-4.622-10.085a.225.225,0,0,0-.21-.14h-4.2a.155.155,0,0,0-.175.175v9.945a.418.418,0,0,1-.42.42h-3.221a.418.418,0,0,1-.42-.42V465.084a.419.419,0,0,1,.42-.42h9.63a7.8,7.8,0,0,1,3.782.893,6.33,6.33,0,0,1,2.556,2.521,7.513,7.513,0,0,1,.911,3.729,6.778,6.778,0,0,1-1.243,4.115,6.427,6.427,0,0,1-3.449,2.364.112.112,0,0,0-.105.07.147.147,0,0,0,0,.14l4.937,10.19a.539.539,0,0,1,.07.21q0,.281-.385.28h-3.362A.5.5,0,0,1,987.8,488.861Zm-9.21-20.52v6.968a.154.154,0,0,0,.175.175h5.253a3.742,3.742,0,0,0,2.714-1,3.509,3.509,0,0,0,1.033-2.644,3.569,3.569,0,0,0-1.033-2.661,3.707,3.707,0,0,0-2.714-1.015h-5.253A.155.155,0,0,0,978.593,468.341Z" transform="translate(-269.313 -1.464)"/><path d="M1163.407,486.981a7.442,7.442,0,0,1-3.082-2.889,8.372,8.372,0,0,1-1.085-4.307v-8.649a8.374,8.374,0,0,1,1.085-4.307,7.336,7.336,0,0,1,3.082-2.871,10.061,10.061,0,0,1,4.622-1.016,10.281,10.281,0,0,1,4.587.981,7.254,7.254,0,0,1,3.081,2.766,7.8,7.8,0,0,1,1.086,4.132.419.419,0,0,1-.42.42l-3.222.175q-.42,0-.42-.385a4.464,4.464,0,0,0-1.278-3.327,4.652,4.652,0,0,0-3.414-1.261,4.71,4.71,0,0,0-3.432,1.261,4.43,4.43,0,0,0-1.3,3.327v8.929a4.386,4.386,0,0,0,1.3,3.292,5.306,5.306,0,0,0,6.846.017,4.4,4.4,0,0,0,1.278-3.309q0-.385.42-.385l3.222.14a.443.443,0,0,1,.3.105.316.316,0,0,1,.123.245,7.957,7.957,0,0,1-1.086,4.185,7.211,7.211,0,0,1-3.081,2.784,10.276,10.276,0,0,1-4.587.98A9.915,9.915,0,0,1,1163.407,486.981Z" transform="translate(-423.978 -0.022)"/><circle class="a" cx="2.315" cy="2.315" r="2.315" transform="translate(675.484 462.916)"/><path class="a" d="M1106.62,528.195a.4.4,0,0,1-.123-.3V507.818a.419.419,0,0,1,.42-.42h3.222a.419.419,0,0,1,.42.42V527.9a.419.419,0,0,1-.42.42h-3.222A.4.4,0,0,1,1106.62,528.195Z" transform="translate(-379.814 -37.247)"/><circle class="a" cx="2.315" cy="2.315" r="2.315" transform="translate(726.399 462.916)"/><g transform="translate(660.568 498.398)"><path class="b" d="M702.754,684.188a1.336,1.336,0,0,1,.638.505,1.45,1.45,0,0,1,.218.809,1.366,1.366,0,0,1-.447,1.089,1.731,1.731,0,0,1-1.178.389H700.1a.069.069,0,0,1-.078-.078v-5.287a.069.069,0,0,1,.078-.078h1.827a1.753,1.753,0,0,1,1.186.373,1.313,1.313,0,0,1,.432,1.05,1.251,1.251,0,0,1-.206.727,1.275,1.275,0,0,1-.587.455C702.728,684.157,702.728,684.173,702.754,684.188Zm-2.177-2.138v1.866a.027.027,0,0,0,.031.031h1.322a1.14,1.14,0,0,0,.782-.257.866.866,0,0,0,.291-.684.931.931,0,0,0-.291-.719,1.11,1.11,0,0,0-.782-.268h-1.322A.027.027,0,0,0,700.577,682.05Zm2.189,4.16a1.115,1.115,0,0,0-.008-1.512,1.122,1.122,0,0,0-.8-.284h-1.345a.027.027,0,0,0-.031.031v2.014a.027.027,0,0,0,.031.031h1.376A1.081,1.081,0,0,0,702.766,686.21Z" transform="translate(-700.025 -681.459)"/><path class="b" d="M730.794,690.811h.4a.069.069,0,0,1,.078.078v3.779a.069.069,0,0,1-.078.078h-.4a.069.069,0,0,1-.078-.078v-.334a.025.025,0,0,0-.016-.023.016.016,0,0,0-.023.008,1.159,1.159,0,0,1-1.034.482,1.563,1.563,0,0,1-.688-.152,1.186,1.186,0,0,1-.5-.439,1.263,1.263,0,0,1-.183-.692v-2.628a.069.069,0,0,1,.078-.078h.4a.069.069,0,0,1,.078.078v2.465a.977.977,0,0,0,.249.7.891.891,0,0,0,.677.26.944.944,0,0,0,.7-.264.954.954,0,0,0,.26-.7v-2.465A.069.069,0,0,1,730.794,690.811Z" transform="translate(-723.68 -689.225)"/><path class="b" d="M753.835,694.443a1.25,1.25,0,0,1-.521-.373.823.823,0,0,1-.183-.521v-.093a.069.069,0,0,1,.078-.078h.373a.069.069,0,0,1,.078.078v.062a.545.545,0,0,0,.268.447,1.133,1.133,0,0,0,.673.19,1.078,1.078,0,0,0,.653-.183.553.553,0,0,0,.249-.462.425.425,0,0,0-.128-.319.92.92,0,0,0-.3-.194q-.175-.07-.54-.179a5.535,5.535,0,0,1-.715-.249,1.314,1.314,0,0,1-.471-.346.833.833,0,0,1-.19-.564.945.945,0,0,1,.389-.793,1.653,1.653,0,0,1,1.027-.3,1.929,1.929,0,0,1,.758.14,1.184,1.184,0,0,1,.509.385.908.908,0,0,1,.179.548v.023a.069.069,0,0,1-.078.078h-.365a.069.069,0,0,1-.078-.078v-.023a.529.529,0,0,0-.253-.443,1.157,1.157,0,0,0-.68-.179,1.141,1.141,0,0,0-.638.159.5.5,0,0,0-.241.439.446.446,0,0,0,.233.4,3.183,3.183,0,0,0,.723.28,7.294,7.294,0,0,1,.731.249,1.344,1.344,0,0,1,.482.338.826.826,0,0,1,.2.579.967.967,0,0,1-.4.809,1.683,1.683,0,0,1-1.05.3A2.011,2.011,0,0,1,753.835,694.443Z" transform="translate(-744.493 -689.024)"/><path class="b" d="M777.011,681.805a.456.456,0,0,1,0-.626.462.462,0,0,1,.622,0,.441.441,0,0,1-.622.626Zm.016,4.689v-3.779a.069.069,0,0,1,.078-.078h.4a.069.069,0,0,1,.078.078v3.779a.069.069,0,0,1-.078.078h-.4A.069.069,0,0,1,777.027,686.494Z" transform="translate(-764.385 -681.059)"/><path class="b" d="M792.083,690.841a1.317,1.317,0,0,1,.369.98v2.566a.069.069,0,0,1-.078.078h-.4a.069.069,0,0,1-.078-.078V691.93a.971.971,0,0,0-.26-.7.89.89,0,0,0-.672-.272.907.907,0,0,0-.956.956v2.473a.069.069,0,0,1-.078.078h-.4a.069.069,0,0,1-.078-.078v-3.779a.069.069,0,0,1,.078-.078h.4a.069.069,0,0,1,.078.078v.334a.026.026,0,0,0,.012.023q.012.008.019-.008a1.2,1.2,0,0,1,1.05-.482A1.348,1.348,0,0,1,792.083,690.841Z" transform="translate(-774.912 -688.944)"/><path class="b" d="M817.335,692.341v.249a.069.069,0,0,1-.078.078h-2.511a.027.027,0,0,0-.031.031,3.462,3.462,0,0,0,.047.552.929.929,0,0,0,.365.552,1.19,1.19,0,0,0,.715.2,1.106,1.106,0,0,0,.575-.148,1.017,1.017,0,0,0,.389-.42q.047-.07.109-.031l.3.179a.078.078,0,0,1,.031.109,1.4,1.4,0,0,1-.583.587,1.824,1.824,0,0,1-.894.214,1.637,1.637,0,0,1-.925-.265,1.417,1.417,0,0,1-.536-.715,3.19,3.19,0,0,1-.14-1.073q0-.326.012-.533a1.7,1.7,0,0,1,.058-.369,1.441,1.441,0,0,1,.532-.809,1.557,1.557,0,0,1,.968-.3,1.531,1.531,0,0,1,1.089.358,1.658,1.658,0,0,1,.474,1.011A3.971,3.971,0,0,1,817.335,692.341Zm-2.228-1.232a.919.919,0,0,0-.33.533,2.5,2.5,0,0,0-.062.529.027.027,0,0,0,.031.031h2.014a.027.027,0,0,0,.031-.031,3.5,3.5,0,0,0-.047-.5.983.983,0,0,0-.346-.556,1.027,1.027,0,0,0-.657-.206A1,1,0,0,0,815.107,691.108Z" transform="translate(-795.604 -688.904)"/><path class="b" d="M839.491,694.443a1.251,1.251,0,0,1-.521-.373.823.823,0,0,1-.183-.521v-.093a.069.069,0,0,1,.078-.078h.373a.069.069,0,0,1,.078.078v.062a.545.545,0,0,0,.268.447,1.132,1.132,0,0,0,.672.19,1.077,1.077,0,0,0,.653-.183.553.553,0,0,0,.249-.462.425.425,0,0,0-.128-.319.921.921,0,0,0-.3-.194q-.175-.07-.54-.179a5.55,5.55,0,0,1-.715-.249,1.311,1.311,0,0,1-.47-.346.833.833,0,0,1-.19-.564.945.945,0,0,1,.388-.793,1.654,1.654,0,0,1,1.027-.3,1.928,1.928,0,0,1,.758.14,1.183,1.183,0,0,1,.509.385.908.908,0,0,1,.179.548v.023a.069.069,0,0,1-.078.078h-.365a.069.069,0,0,1-.078-.078v-.023a.529.529,0,0,0-.252-.443,1.158,1.158,0,0,0-.68-.179,1.14,1.14,0,0,0-.638.159.5.5,0,0,0-.241.439.445.445,0,0,0,.233.4,3.182,3.182,0,0,0,.723.28,7.31,7.31,0,0,1,.731.249,1.345,1.345,0,0,1,.482.338.826.826,0,0,1,.2.579.967.967,0,0,1-.4.809,1.683,1.683,0,0,1-1.05.3A2.011,2.011,0,0,1,839.491,694.443Z" transform="translate(-816.216 -689.024)"/><path class="b" d="M861.767,694.443a1.251,1.251,0,0,1-.521-.373.822.822,0,0,1-.183-.521v-.093a.069.069,0,0,1,.078-.078h.373a.069.069,0,0,1,.078.078v.062a.545.545,0,0,0,.268.447,1.133,1.133,0,0,0,.672.19,1.077,1.077,0,0,0,.653-.183.552.552,0,0,0,.249-.462.425.425,0,0,0-.128-.319A.925.925,0,0,0,863,693q-.175-.07-.54-.179a5.545,5.545,0,0,1-.715-.249,1.309,1.309,0,0,1-.47-.346.834.834,0,0,1-.191-.564.945.945,0,0,1,.389-.793,1.652,1.652,0,0,1,1.026-.3,1.93,1.93,0,0,1,.758.14,1.181,1.181,0,0,1,.509.385.906.906,0,0,1,.179.548v.023a.069.069,0,0,1-.078.078H863.5a.069.069,0,0,1-.078-.078v-.023a.53.53,0,0,0-.253-.443,1.156,1.156,0,0,0-.68-.179,1.141,1.141,0,0,0-.638.159.5.5,0,0,0-.241.439.445.445,0,0,0,.233.4,3.182,3.182,0,0,0,.723.28,7.236,7.236,0,0,1,.731.249,1.342,1.342,0,0,1,.482.338.826.826,0,0,1,.2.579.967.967,0,0,1-.4.809,1.685,1.685,0,0,1-1.05.3A2.01,2.01,0,0,1,861.767,694.443Z" transform="translate(-834.869 -689.024)"/><path class="b" d="M893.931,686.324a1.272,1.272,0,0,1-.509-1.057v-.241a.069.069,0,0,1,.078-.078h.381a.069.069,0,0,1,.078.078v.21a.862.862,0,0,0,.373.727,1.707,1.707,0,0,0,1.034.276,1.415,1.415,0,0,0,.91-.253.823.823,0,0,0,.311-.672.764.764,0,0,0-.144-.467,1.417,1.417,0,0,0-.443-.365,7.841,7.841,0,0,0-.844-.4,8.982,8.982,0,0,1-.906-.408,1.525,1.525,0,0,1-.521-.451,1.162,1.162,0,0,1-.2-.7,1.223,1.223,0,0,1,.455-1.015,1.955,1.955,0,0,1,1.248-.362,2.1,2.1,0,0,1,1.361.4,1.313,1.313,0,0,1,.5,1.073v.171a.069.069,0,0,1-.078.078h-.389a.069.069,0,0,1-.078-.078v-.14a.91.91,0,0,0-.354-.739,1.519,1.519,0,0,0-.984-.288,1.375,1.375,0,0,0-.848.226.772.772,0,0,0-.3.653.725.725,0,0,0,.144.463,1.2,1.2,0,0,0,.412.319q.268.136.828.354a7.554,7.554,0,0,1,.914.435,1.823,1.823,0,0,1,.56.494,1.169,1.169,0,0,1,.214.711,1.27,1.27,0,0,1-.482,1.042,2.075,2.075,0,0,1-1.337.389A2.2,2.2,0,0,1,893.931,686.324Z" transform="translate(-861.965 -681.139)"/><path class="b" d="M922.532,694.2a1.473,1.473,0,0,1-.56-.793,3.391,3.391,0,0,1-.109-.956,3.309,3.309,0,0,1,.109-.948,1.435,1.435,0,0,1,.552-.785,1.646,1.646,0,0,1,.98-.288,1.591,1.591,0,0,1,.953.288,1.443,1.443,0,0,1,.548.778,3.244,3.244,0,0,1,.109.956,3.2,3.2,0,0,1-.109.956,1.442,1.442,0,0,1-.548.793,1.753,1.753,0,0,1-1.924,0Zm1.6-.4a1.013,1.013,0,0,0,.358-.556,3.412,3.412,0,0,0,.07-.785,3.752,3.752,0,0,0-.062-.785,1,1,0,0,0-.362-.556,1.034,1.034,0,0,0-.649-.206.989.989,0,0,0-1,.762,4.974,4.974,0,0,0,0,1.57.966.966,0,0,0,.353.556,1.046,1.046,0,0,0,.657.206A1,1,0,0,0,924.133,693.8Z" transform="translate(-885.78 -688.904)"/><path class="b" d="M948.727,686.9v-5.287a.069.069,0,0,1,.078-.078h.4a.069.069,0,0,1,.078.078V686.9a.069.069,0,0,1-.078.078h-.4A.069.069,0,0,1,948.727,686.9Z" transform="translate(-908.274 -681.459)"/><path class="b" d="M961.857,690.811h.4a.069.069,0,0,1,.078.078v3.779a.069.069,0,0,1-.078.078h-.4a.069.069,0,0,1-.078-.078v-.334a.025.025,0,0,0-.016-.023.016.016,0,0,0-.023.008,1.159,1.159,0,0,1-1.034.482,1.564,1.564,0,0,1-.688-.152,1.185,1.185,0,0,1-.5-.439,1.263,1.263,0,0,1-.183-.692v-2.628a.069.069,0,0,1,.078-.078h.4a.069.069,0,0,1,.078.078v2.465a.975.975,0,0,0,.249.7.89.89,0,0,0,.676.26.943.943,0,0,0,.7-.264.954.954,0,0,0,.26-.7v-2.465A.069.069,0,0,1,961.857,690.811Z" transform="translate(-917.159 -689.225)"/><path class="b" d="M985.266,686.066h-.878a.027.027,0,0,0-.031.031v2.294a.685.685,0,0,0,.167.525.763.763,0,0,0,.525.152h.194a.069.069,0,0,1,.078.078v.319a.069.069,0,0,1-.078.078q-.093.008-.288.008a1.43,1.43,0,0,1-.847-.21.906.906,0,0,1-.288-.777V686.1a.027.027,0,0,0-.031-.031h-.474a.069.069,0,0,1-.078-.078v-.3a.069.069,0,0,1,.078-.078h.474a.028.028,0,0,0,.031-.031v-.9a.069.069,0,0,1,.078-.078h.381a.069.069,0,0,1,.078.078v.9a.027.027,0,0,0,.031.031h.878a.069.069,0,0,1,.078.078v.3A.069.069,0,0,1,985.266,686.066Z" transform="translate(-937.17 -684.021)"/><path class="b" d="M1002.482,681.805a.456.456,0,0,1,0-.626.461.461,0,0,1,.622,0,.441.441,0,0,1-.622.626Zm.016,4.689v-3.779a.069.069,0,0,1,.078-.078h.4a.069.069,0,0,1,.078.078v3.779a.069.069,0,0,1-.078.078h-.4A.069.069,0,0,1,1002.5,686.494Z" transform="translate(-953.181 -681.059)"/><path class="b" d="M1014.784,694.2a1.472,1.472,0,0,1-.56-.793,3.381,3.381,0,0,1-.109-.956,3.3,3.3,0,0,1,.109-.948,1.435,1.435,0,0,1,.552-.785,1.646,1.646,0,0,1,.979-.288,1.59,1.59,0,0,1,.953.288,1.443,1.443,0,0,1,.548.778,3.246,3.246,0,0,1,.109.956,3.2,3.2,0,0,1-.109.956,1.443,1.443,0,0,1-.548.793,1.6,1.6,0,0,1-.96.288A1.619,1.619,0,0,1,1014.784,694.2Zm1.6-.4a1.014,1.014,0,0,0,.358-.556,3.409,3.409,0,0,0,.07-.785,3.757,3.757,0,0,0-.062-.785,1,1,0,0,0-.361-.556,1.035,1.035,0,0,0-.649-.206.989.989,0,0,0-1,.762,4.993,4.993,0,0,0,0,1.57.966.966,0,0,0,.354.556,1.046,1.046,0,0,0,.657.206A1.006,1.006,0,0,0,1016.386,693.8Z" transform="translate(-963.026 -688.904)"/><path class="b" d="M1043.6,690.841a1.316,1.316,0,0,1,.37.98v2.566a.069.069,0,0,1-.078.078h-.4a.069.069,0,0,1-.078-.078V691.93a.971.971,0,0,0-.26-.7.89.89,0,0,0-.673-.272.907.907,0,0,0-.956.956v2.473a.069.069,0,0,1-.078.078h-.4a.069.069,0,0,1-.078-.078v-3.779a.069.069,0,0,1,.078-.078h.4a.069.069,0,0,1,.078.078v.334a.026.026,0,0,0,.012.023c.008.005.014,0,.02-.008a1.2,1.2,0,0,1,1.05-.482A1.346,1.346,0,0,1,1043.6,690.841Z" transform="translate(-985.521 -688.944)"/><path class="b" d="M1066.3,694.443a1.251,1.251,0,0,1-.521-.373.823.823,0,0,1-.183-.521v-.093a.069.069,0,0,1,.078-.078h.373a.069.069,0,0,1,.078.078v.062a.546.546,0,0,0,.268.447,1.133,1.133,0,0,0,.673.19,1.077,1.077,0,0,0,.653-.183.553.553,0,0,0,.249-.462.425.425,0,0,0-.128-.319.925.925,0,0,0-.3-.194q-.175-.07-.54-.179a5.519,5.519,0,0,1-.715-.249,1.31,1.31,0,0,1-.471-.346.834.834,0,0,1-.191-.564.945.945,0,0,1,.389-.793,1.653,1.653,0,0,1,1.026-.3,1.929,1.929,0,0,1,.758.14,1.185,1.185,0,0,1,.509.385.908.908,0,0,1,.179.548v.023a.069.069,0,0,1-.078.078h-.365a.069.069,0,0,1-.078-.078v-.023a.529.529,0,0,0-.253-.443,1.157,1.157,0,0,0-.68-.179,1.141,1.141,0,0,0-.638.159.5.5,0,0,0-.241.439.445.445,0,0,0,.233.4,3.176,3.176,0,0,0,.723.28,7.275,7.275,0,0,1,.731.249,1.345,1.345,0,0,1,.482.338.826.826,0,0,1,.2.579.967.967,0,0,1-.4.809,1.684,1.684,0,0,1-1.05.3A2.012,2.012,0,0,1,1066.3,694.443Z" transform="translate(-1006.133 -689.024)"/><path class="b" d="M1102.852,681.909a1.5,1.5,0,0,1,.416,1.1,1.45,1.45,0,0,1-.423,1.089,1.533,1.533,0,0,1-1.116.412h-1.516a.027.027,0,0,0-.031.031v2.317a.069.069,0,0,1-.078.078h-.4a.069.069,0,0,1-.078-.078v-5.295a.069.069,0,0,1,.078-.078h2.045A1.481,1.481,0,0,1,1102.852,681.909Zm-.416,1.862a1.008,1.008,0,0,0,.287-.75,1.03,1.03,0,0,0-.287-.762,1.01,1.01,0,0,0-.746-.288h-1.477a.028.028,0,0,0-.031.031v2.021a.028.028,0,0,0,.031.031h1.477A1.017,1.017,0,0,0,1102.436,683.771Z" transform="translate(-1034.631 -681.419)"/><path class="b" d="M1126.58,694.683,1125.3,690.9l-.008-.031q0-.054.07-.054h.443a.091.091,0,0,1,.093.062l.972,3.048a.025.025,0,0,0,.047,0l.972-3.048a.091.091,0,0,1,.094-.062l.443.008q.085,0,.062.086l-1.275,3.779a.091.091,0,0,1-.094.062h-.451A.091.091,0,0,1,1126.58,694.683Z" transform="translate(-1056.124 -689.225)"/><path class="b" d="M1150.221,686.066h-.878a.027.027,0,0,0-.031.031v2.294a.685.685,0,0,0,.167.525.763.763,0,0,0,.525.152h.194a.069.069,0,0,1,.078.078v.319a.069.069,0,0,1-.078.078q-.093.008-.288.008a1.429,1.429,0,0,1-.847-.21.905.905,0,0,1-.288-.777V686.1a.027.027,0,0,0-.031-.031h-.474a.069.069,0,0,1-.078-.078v-.3a.069.069,0,0,1,.078-.078h.474a.027.027,0,0,0,.031-.031v-.9a.069.069,0,0,1,.078-.078h.381a.069.069,0,0,1,.078.078v.9a.027.027,0,0,0,.031.031h.878a.069.069,0,0,1,.078.078v.3A.069.069,0,0,1,1150.221,686.066Z" transform="translate(-1075.294 -684.021)"/><path class="b" d="M1167.911,710.294a.443.443,0,0,1,.626-.626.443.443,0,0,1-.626.626Z" transform="translate(-1091.706 -704.914)"/><path class="b" d="M1191.213,686.9v-5.287a.069.069,0,0,1,.078-.078h.4a.069.069,0,0,1,.078.078v4.852a.027.027,0,0,0,.031.031h2.745a.069.069,0,0,1,.078.078v.327a.069.069,0,0,1-.078.078h-3.25A.069.069,0,0,1,1191.213,686.9Z" transform="translate(-1111.318 -681.459)"/><path class="b" d="M1217,686.066h-.879a.027.027,0,0,0-.031.031v2.294a.685.685,0,0,0,.167.525.764.764,0,0,0,.525.152h.194a.069.069,0,0,1,.078.078v.319a.069.069,0,0,1-.078.078q-.093.008-.288.008a1.43,1.43,0,0,1-.848-.21.906.906,0,0,1-.287-.777V686.1a.028.028,0,0,0-.031-.031h-.474a.069.069,0,0,1-.078-.078v-.3a.069.069,0,0,1,.078-.078h.474a.028.028,0,0,0,.031-.031v-.9a.068.068,0,0,1,.078-.078h.381a.069.069,0,0,1,.078.078v.9a.027.027,0,0,0,.031.031H1217a.069.069,0,0,1,.078.078v.3A.069.069,0,0,1,1217,686.066Z" transform="translate(-1131.21 -684.021)"/><path class="b" d="M1235.673,681.537h.4a.069.069,0,0,1,.078.078V686.9a.069.069,0,0,1-.078.078h-.4a.069.069,0,0,1-.078-.078v-.327a.018.018,0,0,0-.012-.02c-.008,0-.017,0-.027.012a1.177,1.177,0,0,1-.424.35,1.26,1.26,0,0,1-.564.125,1.468,1.468,0,0,1-.913-.28,1.421,1.421,0,0,1-.509-.762,3.477,3.477,0,0,1-.109-.988,3.69,3.69,0,0,1,.093-.964,1.438,1.438,0,0,1,.513-.781,1.484,1.484,0,0,1,.925-.284,1.3,1.3,0,0,1,.56.12,1.137,1.137,0,0,1,.427.346c.01.01.02.014.027.012s.012-.009.012-.019v-1.827A.069.069,0,0,1,1235.673,681.537Zm-.117,4.058a4.229,4.229,0,0,0,.031-.583,4.321,4.321,0,0,0-.031-.587,1.325,1.325,0,0,0-.109-.377.884.884,0,0,0-.307-.424.83.83,0,0,0-.51-.159.92.92,0,0,0-.536.156.88.88,0,0,0-.327.412,1.353,1.353,0,0,0-.136.385,3.22,3.22,0,0,0-.043.595,4.028,4.028,0,0,0,.031.572,1.3,1.3,0,0,0,.109.369.849.849,0,0,0,.33.443.97.97,0,0,0,.564.163.824.824,0,0,0,.521-.163.961.961,0,0,0,.311-.435A1.379,1.379,0,0,0,1235.556,685.6Z" transform="translate(-1146.339 -681.459)"/><path class="b" d="M1260.069,710.294a.443.443,0,0,1,.626-.626.443.443,0,0,1-.626.626Z" transform="translate(-1168.873 -704.914)"/></g></g></svg>