<?xml version="1.0" encoding="UTF-8"?>
<svg version="1.1" xmlns="http://www.w3.org/2000/svg" width="122" height="95">
<path d="M0 0 C7.70840618 7.25497053 13.44748986 14.71234797 14.17578125 25.63671875 C14.1857744 27.75859812 14.10255274 29.88057676 14 32 C14.54527344 31.68546875 15.09054688 31.3709375 15.65234375 31.046875 C24.2177383 26.18583057 31.98742622 21.81108351 42 22 C43.00598366 32.81432433 38.05220787 44.24391223 32 53 C26.97257498 58.81837767 21.23855013 61.70638964 14 64 C12.6078125 64.48339844 12.6078125 64.48339844 11.1875 64.9765625 C0.82017151 68.14742095 -9.35137227 66.82431387 -19 62 C-19.66 62 -20.32 62 -21 62 C-22.71826366 60.38657955 -24.3762309 58.70848748 -26 57 C-27.27230469 55.68902344 -27.27230469 55.68902344 -28.5703125 54.3515625 C-36.91554209 45.44488016 -42 35.54938946 -42 23 C-35.57926029 20.91475977 -28.34781125 23.09527726 -22.5 26.0625 C-21.8915625 26.40410156 -21.283125 26.74570312 -20.65625 27.09765625 C-18.83540255 28.15274136 -18.83540255 28.15274136 -16 29 C-15.34 29.99 -14.68 30.98 -14 32 C-13.83564453 30.83984375 -13.83564453 30.83984375 -13.66796875 29.65625 C-12.11733584 19.46997853 -9.18957476 11.86125018 -4 3 C-3.34 3 -2.68 3 -2 3 C-1.34 2.01 -0.68 1.02 0 0 Z M-1 7 C-6.60959577 16.75505177 -11.12505789 25.49976846 -8.27734375 36.890625 C-6.15433658 43.59485817 -3.33701038 49.81832503 0 56 C0.66 56 1.32 56 2 56 C7.71268671 44.70214191 12.37071772 33.86731158 9.27734375 20.9921875 C7.40096227 15.41621987 5.22764615 11.1163923 1 7 C0.34 7 -0.32 7 -1 7 Z M-35 28 C-36.40843182 32.54577694 -35.4862514 35.04271032 -33.5625 39.3125 C-33.08941406 40.38113281 -32.61632812 41.44976562 -32.12890625 42.55078125 C-31.75636719 43.35902344 -31.38382813 44.16726562 -31 45 C-30.34 45 -29.68 45 -29 45 C-28.9175 45.5775 -28.835 46.155 -28.75 46.75 C-27.01032096 51.96903712 -21.22609466 55.72117966 -16.61328125 58.37109375 C-12.47560256 60.28889729 -8.56948943 61.53133442 -4 62 C-3.34 61.01 -2.68 60.02 -2 59 C-3.65 56.03 -5.3 53.06 -7 50 C-7.66 50 -8.32 50 -9 50 C-9.10828125 49.443125 -9.2165625 48.88625 -9.328125 48.3125 C-11.16361544 41.99499801 -15.31066136 35.36188192 -21 32 C-25.77540992 29.77199472 -29.6778302 28 -35 28 Z M18.0625 34.7578125 C16.51637622 36.76609284 15.25620376 38.79799167 14 41 C13.3709375 42.01449219 12.741875 43.02898438 12.09375 44.07421875 C8.34153072 49.65797298 8.34153072 49.65797298 7 56 C6.34 56 5.68 56 5 56 C4.01 58.475 4.01 58.475 3 61 C6.9383899 62.96919495 12.00176954 60.30946412 16 59 C20.57576917 56.81611017 24.26819526 53.39576545 28 50 C28.49886719 49.58363281 28.99773437 49.16726562 29.51171875 48.73828125 C31.7237174 46.15471328 32.84437266 43.3015656 34.1875 40.1875 C34.98220703 38.38345703 34.98220703 38.38345703 35.79296875 36.54296875 C36.97006824 33.08785795 37.24893893 30.61238043 37 27 C30.2085315 27 23.11340605 30.17533725 18.0625 34.7578125 Z " fill="#8C5E5F" transform="translate(61,12)"/>
<path d="M0 0 C2.87245551 1.12593163 5.31137384 2.45652943 8 4 C8.99 4.33 9.98 4.66 11 5 C11.99 6.485 11.99 6.485 13 8 C13.33 5.36 13.66 2.72 14 0 C14.33 0 14.66 0 15 0 C15 4.29 15 8.58 15 13 C15.99 13.33 16.98 13.66 18 14 C18.33 12.68 18.66 11.36 19 10 C19.24234375 10.7734375 19.4846875 11.546875 19.734375 12.34375 C21.73168667 18.5507801 24.00227047 24.21866448 27 30 C27 30.66 27 31.32 27 32 C27.66 32 28.32 32 29 32 C29 30.35 29 28.7 29 27 C29.66 26.67 30.32 26.34 31 26 C33.19434146 21.4284553 34.7015504 16.89415618 36 12 C37.32 12 38.64 12 40 12 C40 12.66 40 13.32 40 14 C40.99 14 41.98 14 43 14 C40 20 37 26 34 32 C33.34 32 32.68 32 32 32 C31.67 33.98 31.34 35.96 31 38 C30.01 38 29.02 38 28 38 C27.67 37.34 27.34 36.68 27 36 C26.34 36.66 25.68 37.32 25 38 C24.66226563 37.21753906 24.32453125 36.43507812 23.9765625 35.62890625 C23.53054687 34.61699219 23.08453125 33.60507813 22.625 32.5625 C22.18414062 31.55316406 21.74328125 30.54382813 21.2890625 29.50390625 C20.24923714 26.87856453 20.24923714 26.87856453 18 26 C17.01408264 24.27681306 16.0848097 22.52094369 15.1875 20.75 C10.81960465 12.64268346 5.68073421 8.18745709 -3 5 C-5.7089743 4.81627046 -5.7089743 4.81627046 -8 5 C-7.39891424 10.65020618 -5.92471317 15.66164461 -4 21 C-3.34 21 -2.68 21 -2 21 C-1.4121875 22.051875 -1.4121875 22.051875 -0.8125 23.125 C3.94218432 30.66691306 11.55925084 34.66757163 20.0625 36.75 C20.701875 36.8325 21.34125 36.915 22 37 C20.53095214 38.68940503 19.26028076 39.86985962 17.25 40.875 C13.75137553 41.06936803 11.12918973 39.44869895 8 38 C7.34 38 6.68 38 6 38 C4.28173634 36.38657955 2.6237691 34.70848748 1 33 C-0.27230469 31.68902344 -0.27230469 31.68902344 -1.5703125 30.3515625 C-9.91554209 21.44488016 -15 11.54938946 -15 -1 C-10.66445794 -3.16777103 -4.55776889 -1.01165431 0 0 Z " fill="#905F64" transform="translate(34,36)"/>
<path d="M0 0 C0.66 0 1.32 0 2 0 C3.91626976 8.57578151 1.86638174 14.28908049 -2 22 C-2.31195313 22.68320312 -2.62390625 23.36640625 -2.9453125 24.0703125 C-6.75631434 31.72664952 -13.4174931 36.36890094 -21.296875 39.1484375 C-22.18890625 39.42945313 -23.0809375 39.71046875 -24 40 C-24.97453125 40.32226562 -25.9490625 40.64453125 -26.953125 40.9765625 C-33.69403256 42.96426601 -39.3131112 43.51757367 -46 41 C-46.66 40.34 -47.32 39.68 -48 39 C-41.25 36.875 -41.25 36.875 -39 38 C-38.67 37.01 -38.34 36.02 -38 35 C-37.67 35.99 -37.34 36.98 -37 38 C-34.60135582 37.40561899 -32.20654085 36.79992905 -29.8125 36.1875 C-29.13896484 36.02185547 -28.46542969 35.85621094 -27.77148438 35.68554688 C-19.20268359 33.47019838 -12.1056358 28.5693332 -7.25 21.125 C-4.21003982 15.87780801 -1.26816261 10.22061783 -2 4 C-2.495 3.01 -2.495 3.01 -3 2 C-2.01 1.67 -1.02 1.34 0 1 C0 0.67 0 0.34 0 0 Z " fill="#926668" transform="translate(99,36)"/>
<path d="M0 0 C2.0625 0.4375 2.0625 0.4375 4 1 C0.65836389 6.37567548 -3.14260059 7.55311258 -9 9 C-14.67081866 10.31644005 -19.52915098 9.90532624 -25 8 C-25.66 7.34 -26.32 6.68 -27 6 C-20.25 3.875 -20.25 3.875 -18 5 C-17.67 4.01 -17.34 3.02 -17 2 C-16.67 2.99 -16.34 3.98 -16 5 C-13.51969902 4.35828555 -11.04080278 3.71184679 -8.5625 3.0625 C-7.85544922 2.88009766 -7.14839844 2.69769531 -6.41992188 2.50976562 C-2.92425139 1.81850626 -2.92425139 1.81850626 0 0 Z " fill="#8D5A5A" transform="translate(78,69)"/>
<path d="M0 0 C2.63641552 1.12196971 4.63846737 2.3524191 7 4 C6.34 4.66 5.68 5.32 5 6 C-0.00677362 5.66621509 -4.28101628 4.76961889 -9 3 C-9.66 5.31 -10.32 7.62 -11 10 C-11.33 9.01 -11.66 8.02 -12 7 C-12.66 7 -13.32 7 -14 7 C-14.33 4.36 -14.66 1.72 -15 -1 C-10.66475959 -3.16762021 -4.55383989 -1.03299693 0 0 Z " fill="#8A5B60" transform="translate(34,36)"/>
<path d="M0 0 C2.97 0.495 2.97 0.495 6 1 C5.67 1.66 5.34 2.32 5 3 C4.01 3 3.02 3 2 3 C2.60108576 8.65020618 4.07528683 13.66164461 6 19 C6.66 19 7.32 19 8 19 C8.625 20.875 8.625 20.875 9 23 C8.34 23.66 7.68 24.32 7 25 C6.34 25 5.68 25 5 25 C-0.42421927 18.9672946 -2.19665343 12.89957463 -3 5 C-2.34 5 -1.68 5 -1 5 C-0.67 3.35 -0.34 1.7 0 0 Z " fill="#90686B" transform="translate(24,38)"/>
<path d="M0 0 C0.33 0 0.66 0 1 0 C1 4.29 1 8.58 1 13 C1.99 13.33 2.98 13.66 4 14 C4.33 12.68 4.66 11.36 5 10 C5.33 12.31 5.66 14.62 6 17 C5.34 17.33 4.68 17.66 4 18 C3.34444881 20.52733235 3.34444881 20.52733235 3 23 C1 20 1 20 -0.0078125 18.1328125 C-3.06014274 12.64715606 -6.45107047 9.86396363 -12 7 C-7.75 4.16666667 -7.75 4.16666667 -5 4 C-2.75 5.9375 -2.75 5.9375 -1 8 C-0.67 5.36 -0.34 2.72 0 0 Z " fill="#9A696D" transform="translate(48,36)"/>
<path d="M0 0 C0.66 0.33 1.32 0.66 2 1 C2.625 3.0625 2.625 3.0625 3 5 C2.34 5 1.68 5 1 5 C0.42240084 12.34376076 -0.14738028 19.63098587 0 27 C-2.475 26.01 -2.475 26.01 -5 25 C-4.93954948 22.14371294 -4.8523561 19.29234509 -4.75 16.4375 C-4.73582031 15.63763672 -4.72164062 14.83777344 -4.70703125 14.01367188 C-4.47194592 8.25408126 -3.21600854 4.79185272 0 0 Z " fill="#865657" transform="translate(53,25)"/>
<path d="M0 0 C0.66 0 1.32 0 2 0 C3.87331979 8.38356975 2.13239776 14.54124909 -2 22 C-3.671875 23.84765625 -3.671875 23.84765625 -5 25 C-5.33 23.68 -5.66 22.36 -6 21 C-5.34 21 -4.68 21 -4 21 C-4.04125 19.948125 -4.0825 18.89625 -4.125 17.8125 C-4.00582627 14.17770129 -3.37725287 12.27097557 -2 9 C-1.80170158 6.15772269 -1.72372114 4.55255772 -3 2 C-2.01 1.67 -1.02 1.34 0 1 C0 0.67 0 0.34 0 0 Z " fill="#936468" transform="translate(99,36)"/>
<path d="M0 0 C0.66 0 1.32 0 2 0 C2.90953762 3.10397759 3.13464149 5.89510222 3.125 9.125 C3.12757812 9.99382813 3.13015625 10.86265625 3.1328125 11.7578125 C3 14 3 14 2 16 C2.66 16 3.32 16 4 16 C4 15.34 4 14.68 4 14 C4.66 14 5.32 14 6 14 C6 15.65 6 17.3 6 19 C4.68 19 3.36 19 2 19 C2 18.34 2 17.68 2 17 C1.34 17 0.68 17 0 17 C-0.33 17.99 -0.66 18.98 -1 20 C-1.22370596 17.79317093 -1.42830391 15.58440027 -1.625 13.375 C-1.74101563 12.14523438 -1.85703125 10.91546875 -1.9765625 9.6484375 C-2.00034163 5.94681886 -1.37441976 3.40982003 0 0 Z " fill="#844A4D" transform="translate(72,31)"/>
<path d="M0 0 C5.02147446 7.81890486 5.02147446 7.81890486 4.9375 12.4375 C4 15 4 15 2 17 C1.87625 16.030625 1.7525 15.06125 1.625 14.0625 C1.315625 12.5465625 1.315625 12.5465625 1 11 C0.34 10.67 -0.32 10.34 -1 10 C-2.34839851 7.0652503 -3.3001048 4.14952839 -4 1 C-2 0 -2 0 0 0 Z " fill="#7B484D" transform="translate(68,19)"/>
<path d="M0 0 C1.32 0 2.64 0 4 0 C4.86846831 1.74294678 5.71930627 3.49468663 6.5625 5.25 C7.27599609 6.71179687 7.27599609 6.71179687 8.00390625 8.203125 C9.03510273 11.09856297 9.11346788 12.19966161 8 15 C8 14.34 8 13.68 8 13 C7.1028125 12.8453125 7.1028125 12.8453125 6.1875 12.6875 C3.60531825 11.87595716 2.68751807 11.10002249 1 9 C0.48828125 6.73828125 0.48828125 6.73828125 0.3125 4.3125 C0.24675781 3.50425781 0.18101563 2.69601563 0.11328125 1.86328125 C0.07589844 1.24839844 0.03851563 0.63351563 0 0 Z " fill="#996066" transform="translate(51,53)"/>
<path d="M0 0 C0.88751953 0.30744141 0.88751953 0.30744141 1.79296875 0.62109375 C5.83660816 1.9997571 9.76855249 3.31750847 14 4 C12.50631016 5.71774331 11.24653489 6.88098316 9.1875 7.875 C5.91809657 8.06182305 3.78903893 6.58468121 1 5 C1 4.34 1 3.68 1 3 C0.34 2.34 -0.32 1.68 -1 1 C-0.67 0.67 -0.34 0.34 0 0 Z " fill="#976A6C" transform="translate(42,69)"/>
<path d="M0 0 C2.97 0.495 2.97 0.495 6 1 C5.67 1.66 5.34 2.32 5 3 C4.01 3 3.02 3 2 3 C2.33 5.97 2.66 8.94 3 12 C1.35 12.66 -0.3 13.32 -2 14 C-2.33 11.03 -2.66 8.06 -3 5 C-2.34 5 -1.68 5 -1 5 C-0.67 3.35 -0.34 1.7 0 0 Z " fill="#B18A8C" transform="translate(24,38)"/>
<path d="M0 0 C0.680625 0.4125 1.36125 0.825 2.0625 1.25 C-0.74554268 4.21404505 -3.12065774 6.69499019 -6.9375 8.25 C-6.9375 6.93 -6.9375 5.61 -6.9375 4.25 C-7.5975 4.25 -8.2575 4.25 -8.9375 4.25 C-8.9375 4.91 -8.9375 5.57 -8.9375 6.25 C-9.5975 6.25 -10.2575 6.25 -10.9375 6.25 C-9.72596625 2.61539876 -8.08699422 1.7021721 -4.79296875 -0.09765625 C-2.9375 -0.75 -2.9375 -0.75 0 0 Z " fill="#906669" transform="translate(84.9375,40.75)"/>
<path d="M0 0 C2 3 2 3 1.6875 5.4375 C1.460625 6.283125 1.23375 7.12875 1 8 C0.7834375 9.11375 0.7834375 9.11375 0.5625 10.25 C0.376875 10.8275 0.19125 11.405 0 12 C-0.99 12.495 -0.99 12.495 -2 13 C-2.69965443 11.73581754 -3.38434763 10.46334598 -4.0625 9.1875 C-4.44535156 8.47980469 -4.82820313 7.77210937 -5.22265625 7.04296875 C-6 5 -6 5 -5 2 C-4.34 2.33 -3.68 2.66 -3 3 C-2.01 3.33 -1.02 3.66 0 4 C0 2.68 0 1.36 0 0 Z " fill="#B57F7F" transform="translate(52,46)"/>
<path d="M0 0 C0.66 0 1.32 0 2 0 C2.2493357 1.60115576 2.47378648 3.20620159 2.6875 4.8125 C2.81511719 5.70582031 2.94273438 6.59914063 3.07421875 7.51953125 C3 10 3 10 1.51953125 11.82421875 C1.01808594 12.21222656 0.51664062 12.60023437 0 13 C-0.13277344 12.37351562 -0.26554687 11.74703125 -0.40234375 11.1015625 C-0.57894531 10.28429688 -0.75554687 9.46703125 -0.9375 8.625 C-1.19853516 7.40683594 -1.19853516 7.40683594 -1.46484375 6.1640625 C-1.92330693 3.970537 -1.92330693 3.970537 -3 2 C-2.01 1.67 -1.02 1.34 0 1 C0 0.67 0 0.34 0 0 Z " fill="#9A666A" transform="translate(99,36)"/>
<path d="M0 0 C0.33 0 0.66 0 1 0 C1.33 2.97 1.66 5.94 2 9 C2.33 9 2.66 9 3 9 C3.33 11.64 3.66 14.28 4 17 C1.525 16.01 1.525 16.01 -1 15 C-0.67 10.05 -0.34 5.1 0 0 Z " fill="#742E31" transform="translate(49,35)"/>
<path d="M0 0 C0.66 0.33 1.32 0.66 2 1 C3.19150921 5.36886712 3.021829 7.95634201 1 12 C-1 9 -1 9 -1 6 C-1.66 5.67 -2.32 5.34 -3 5 C-1.68 4.67 -0.36 4.34 1 4 C0.67 2.68 0.34 1.36 0 0 Z " fill="#A87C7F" transform="translate(70,24)"/>
<path d="M0 0 C0.33 0.99 0.66 1.98 1 3 C-1.1875 4.1875 -1.1875 4.1875 -4 5 C-6.8125 3.625 -6.8125 3.625 -9 2 C-4 -1.33333333 -4 -1.33333333 0 0 Z " fill="#9E7277" transform="translate(45,41)"/>
<path d="M0 0 C0.33 0.99 0.66 1.98 1 3 C0.34 3 -0.32 3 -1 3 C-1 3.66 -1 4.32 -1 5 C-0.34 5.33 0.32 5.66 1 6 C-1.375 7.5625 -1.375 7.5625 -4 9 C-4.66 8.67 -5.32 8.34 -6 8 C-6 7.34 -6 6.68 -6 6 C-5.34 5.67 -4.68 5.34 -4 5 C-4 4.01 -4 3.02 -4 2 C-2.68 1.34 -1.36 0.68 0 0 Z " fill="#A37B7B" transform="translate(85,65)"/>
<path d="M0 0 C1.32 0 2.64 0 4 0 C5.42944945 2.35438733 6.08661261 3.48032433 5.625 6.25 C5.41875 6.8275 5.2125 7.405 5 8 C5 7.34 5 6.68 5 6 C3.68 5.67 2.36 5.34 1 5 C0.67 3.35 0.34 1.7 0 0 Z " fill="#794F53" transform="translate(54,60)"/>
<path d="M0 0 C-0.598125 0.20625 -1.19625 0.4125 -1.8125 0.625 C-4.81018767 2.50926082 -5.61361776 4.81132084 -7 8 C-8.76462683 4.91190305 -9 3.76687864 -9 0 C-5.93109813 -1.53445094 -3.29905734 -0.54984289 0 0 Z " fill="#C1A0A4" transform="translate(28,35)"/>
<path d="M0 0 C3.81684226 1.55500981 6.19195732 4.03595495 9 7 C8.01 7.33 7.02 7.66 6 8 C5.01 7.34 4.02 6.68 3 6 C3 5.34 3 4.68 3 4 C2.34 4 1.68 4 1 4 C0.67 2.68 0.34 1.36 0 0 Z " fill="#945F66" transform="translate(33,62)"/>
<path d="M0 0 C1.32 0 2.64 0 4 0 C4 0.66 4 1.32 4 2 C4.99 2 5.98 2 7 2 C6.34 3.32 5.68 4.64 5 6 C4.01 6 3.02 6 2 6 C1.34 5.34 0.68 4.68 0 4 C0 2.68 0 1.36 0 0 Z " fill="#A97273" transform="translate(70,48)"/>
<path d="M0 0 C-3 2 -3 2 -5 2 C-5.33 4.64 -5.66 7.28 -6 10 C-8.29013653 6.5647952 -8.17842973 5.014669 -8 1 C-5.07175348 0.02391783 -3.04386724 -0.08226668 0 0 Z " fill="#692A32" transform="translate(29,36)"/>
<path d="M0 0 C1.20272819 2.40545638 1.10071472 3.94996953 1.0625 6.625 C1.05347656 7.44226563 1.04445313 8.25953125 1.03515625 9.1015625 C1.02355469 9.72804688 1.01195313 10.35453125 1 11 C0.01 11.33 -0.98 11.66 -2 12 C-2 10.68 -2 9.36 -2 8 C-2.66 8 -3.32 8 -4 8 C-2.66666667 5.33333333 -1.33333333 2.66666667 0 0 Z " fill="#A37C80" transform="translate(67,57)"/>
<path d="M0 0 C0.33 0.66 0.66 1.32 1 2 C1.99 2.33 2.98 2.66 4 3 C3.01 4.32 2.02 5.64 1 7 C0.34 6.34 -0.32 5.68 -1 5 C-1.66 5.66 -2.32 6.32 -3 7 C-2.38722388 4.03824877 -1.74627478 2.61941217 0 0 Z " fill="#A47C81" transform="translate(54,21)"/>
<path d="M0 0 C2 1 2 1 4 4 C2.02 4.99 2.02 4.99 0 6 C0 4.68 0 3.36 0 2 C-0.66 2 -1.32 2 -2 2 C-2 2.66 -2 3.32 -2 4 C-2.66 4 -3.32 4 -4 4 C-3.67 3.01 -3.34 2.02 -3 1 C-2.01 0.67 -1.02 0.34 0 0 Z " fill="#A47E7F" transform="translate(78,43)"/>
<path d="M0 0 C-0.33 1.65 -0.66 3.3 -1 5 C-2.32 5 -3.64 5 -5 5 C-5 3.68 -5 2.36 -5 1 C-3 0 -3 0 0 0 Z " fill="#875158" transform="translate(60,18)"/>
<path d="M0 0 C0.66 0.66 1.32 1.32 2 2 C1.625 4.625 1.625 4.625 1 7 C0.01 7 -0.98 7 -2 7 C-2 6.01 -2 5.02 -2 4 C-1.34 4 -0.68 4 0 4 C0 2.68 0 1.36 0 0 Z " fill="#7A4D52" transform="translate(95,53)"/>
<path d="M0 0 C0.66 0 1.32 0 2 0 C2 3.3 2 6.6 2 10 C1.67 10 1.34 10 1 10 C1 8.35 1 6.7 1 5 C0.34 5 -0.32 5 -1 5 C-0.67 3.35 -0.34 1.7 0 0 Z " fill="#6A3A3B" transform="translate(72,31)"/>
<path d="" fill="#FFFFFF" transform="translate(0,0)"/>
<path d="" fill="#FFFFFF" transform="translate(0,0)"/>
<path d="" fill="#FFFFFF" transform="translate(0,0)"/>
<path d="" fill="#FFBFBF" transform="translate(0,0)"/>
<path d="" fill="#FFFFFF" transform="translate(0,0)"/>
<path d="" fill="#FFCCFF" transform="translate(0,0)"/>
<path d="" fill="#FFFFFF" transform="translate(0,0)"/>
<path d="" fill="#FFFFFF" transform="translate(0,0)"/>
</svg>
